#!OML:ASF F:\VICON\USERDATA\INSTALL\rory3\rory3.ASF
:FULLY-SPECIFIED
:DEGREES
296
root -0.102703 15.3724 -6.01818 -177.47 8.54626 -185.17
lowerback 6.99157 6.26737 -9.95377
upperback -0.73656 7.59989 -3.13728
thorax -5.53848 4.08251 1.2645
lowerneck -21.6259 -2.05768 1.66862
upperneck 28.5662 -8.16238 8.57342
head 13.7037 -2.75535 1.49067
rclavicle -4.58199e-014 2.3059e-014
rhumerus -12.6317 25.0025 -50.986
rradius 109.615
rwrist -67.9223
rhand 43.3234 -5.74561
rfingers 7.12502
rthumb 65.0862 -12.7784
lclavicle -4.58199e-014 2.3059e-014
lhumerus -31.4851 13.5713 81.8265
lradius 117.25
lwrist 64.6569
lhand 31.5932 16.8301
lfingers 7.12502
lthumb 55.1333 34.8719
rfemur -70.0542 -5.39184 7.72448
rtibia 142.371
rfoot 67.274 0.0831385
rtoes 13.6947
lfemur -39.4149 -3.72884 -30.4694
ltibia 61.1837
lfoot -19.8865 5.20564
ltoes -17.3843
297
root -0.0433907 15.2933 -6.148 -178.645 7.19644 -186.864
lowerback 8.79024 5.69042 -12.012
upperback -0.325901 6.47487 -3.17068
thorax -6.22244 3.62334 2.3361
lowerneck -21.3798 -1.80668 1.68565
upperneck 27.7127 -7.4257 8.27067
head 13.2316 -2.47036 1.50447
rclavicle -3.47376e-014 7.87187e-014
rhumerus -9.86891 22.5929 -47.1735
rradius 110.419
rwrist -71.1353
rhand 42.6872 -5.47438
rfingers 7.12502
rthumb 64.5818 -13.3325
lclavicle -3.47376e-014 7.87187e-014
lhumerus -23.7547 10.8797 81.5714
lradius 118.265
lwrist 61.6073
lhand 31.323 16.9714
lfingers 7.12502
lthumb 54.8923 35.1877
rfemur -75.4024 -10.7665 4.06871
rtibia 145.17
rfoot 69.6777 0.964247
rtoes 18.1088
lfemur -37.9302 -5.02411 -32.388
ltibia 61.3676
lfoot -20.2041 5.65282
ltoes -17.6637
298
root 0.0152917 15.1922 -6.28755 -179.682 5.44893 -189.193
lowerback 11.2659 5.19627 -14.4051
upperback -0.516762 5.17936 -3.54975
thorax -7.83519 3.1845 3.20645
lowerneck -21.1736 -1.72905 1.53668
upperneck 27.9579 -7.22046 8.0295
head 13.2695 -2.43491 1.47565
rclavicle -8.12035e-014 7.79236e-014
rhumerus -8.75441 20.2249 -44.0011
rradius 111.451
rwrist -74.6821
rhand 41.9237 -5.84188
rfingers 7.12502
rthumb 63.9694 -14.6464
lclavicle -8.12035e-014 7.79236e-014
lhumerus -17.6359 7.04948 80.3818
lradius 119.581
lwrist 61.6887
lhand 31.1883 17.2317
lfingers 7.12502
lthumb 54.772 35.5341
rfemur -80.8156 -19.5168 -0.906355
rtibia 147.466
rfoot 71.4909 6.24519
rtoes 20.6288
lfemur -36.4574 -6.73035 -35.1263
ltibia 61.5909
lfoot -20.4657 6.23232
ltoes -17.3216
299
root 0.0461293 15.2136 -6.46015 -178.633 3.53402 -186.495
lowerback 12.1426 4.11934 -11.6434
upperback -1.35522 3.79314 -2.64683
thorax -8.90397 2.42461 2.88713
lowerneck -21.1503 -1.41053 1.67788
upperneck 28.7207 -6.63215 7.13705
head 13.5027 -2.27089 1.21351
rclavicle -2.94698e-014 -3.97569e-016
rhumerus -7.53887 18.6879 -40.9157
rradius 112.338
rwrist -77.9303
rhand 41.4024 -5.69852
rfingers 7.12502
rthumb 63.547 -15.1228
lclavicle -2.94698e-014 -3.97569e-016
lhumerus -13.0786 3.20739 77.8327
lradius 121.116
lwrist 61.9754
lhand 28.5081 17.629
lfingers 7.12502
lthumb 52.3608 37.5179
rfemur -87.0223 -18.9061 4.26878
rtibia 147.201
rfoot 72.3165 4.77869
rtoes 21.5844
lfemur -36.8727 -8.65195 -32.2697
ltibia 62.2489
lfoot -20.9339 6.11528
ltoes -15.9397
300
root 0.0646913 15.2624 -6.62663 -178.018 1.3622 -184.87
lowerback 14.0172 2.93709 -9.88175
upperback -2.71114 2.10022 -1.87348
thorax -11.2203 1.62701 3.00424
lowerneck -20.1096 -0.964445 1.9132
upperneck 29.671 -5.94678 6.1442
head 13.6009 -2.14006 0.909169
rclavicle -3.70236e-014 2.42517e-014
rhumerus -6.72477 18.6063 -37.9464
rradius 113.037
rwrist -81.4126
rhand 40.7765 -5.84089
rfingers 7.12502
rthumb 63.0357 -15.9826
lclavicle -3.70236e-014 2.42517e-014
lhumerus -8.84053 0.137331 75.4956
lradius 120.337
lwrist 61.5087
lhand 30.9486 13.5546
lfingers 7.12502
lthumb 54.5577 32.0084
rfemur -91.5316 -19.7981 6.98801
rtibia 146.168
rfoot 71.4305 3.05446
rtoes 24.2993
lfemur -36.6552 -10.6044 -30.6029
ltibia 62.3303
lfoot -21.1148 6.04272
ltoes -16.3821
301
root 0.086644 15.3235 -6.78566 -177.823 -0.817366 -183.552
lowerback 14.114 1.81846 -8.27398
upperback -2.27024 0.73824 -1.16289
thorax -10.5713 0.773974 3.24542
lowerneck -20.3607 -0.652679 2.35503
upperneck 29.1589 -5.0773 5.08894
head 13.3523 -1.80712 0.579947
rclavicle -3.8266e-015 -4.37326e-015
rhumerus -4.3539 17.3812 -34.1322
rradius 112.922
rwrist -85.4443
rhand 39.7757 -5.37706
rfingers 7.12502
rthumb 62.209 -16.6082
lclavicle -3.8266e-015 -4.37326e-015
lhumerus -1.64876 -1.57152 73.4318
lradius 120.002
lwrist 62.0787
lhand 30.1774 13.6162
lfingers 7.12502
lthumb 53.8664 32.5442
rfemur -94.8726 -20.8567 9.13876
rtibia 144.577
rfoot 69.3541 2.3865
rtoes 26.8401
lfemur -35.9985 -11.9971 -29.3221
ltibia 62.0232
lfoot -21.0057 5.86428
ltoes -18.0489
302
root 0.105836 15.4675 -6.94167 -177.885 -2.83792 -182.189
lowerback 14.7579 0.740907 -6.81034
upperback -2.07725 -0.35332 -0.367562
thorax -10.5773 0.211707 3.54509
lowerneck -19.9069 -0.641355 2.26907
upperneck 28.4914 -4.66418 4.53094
head 12.9462 -1.70695 0.458308
rclavicle -8.17502e-015 -3.57812e-015
rhumerus -3.11908 17.3617 -30.1191
rradius 112.308
rwrist -90.0201
rhand 39.6477 -4.98333
rfingers 7.12502
rthumb 62.1025 -16.349
lclavicle -8.17502e-015 -3.57812e-015
lhumerus 4.93766 -3.21264 71.154
lradius 120.062
lwrist 62.8159
lhand 29.1595 14.0335
lfingers 7.12502
lthumb 52.9497 33.5577
rfemur -96.8738 -20.6373 11.1563
rtibia 141.738
rfoot 64.977 0.318527
rtoes 25.4333
lfemur -34.6813 -12.8339 -27.9855
ltibia 60.8979
lfoot -20.527 5.35253
ltoes -18.8598
303
root 0.122314 15.6462 -7.09871 -177.918 -4.43457 -180.824
lowerback 15.2206 -0.0731912 -5.42617
upperback -1.75883 -1.10025 0.438735
thorax -10.4003 -0.202051 3.82221
lowerneck -20.9538 -0.371141 2.03298
upperneck 28.998 -4.17338 4.34771
head 13.3634 -1.49398 0.508762
rclavicle 5.93869e-015 1.2921e-015
rhumerus -1.87973 17.5603 -26.2278
rradius 111.18
rwrist -94.4111
rhand 40.1232 -5.3736
rfingers 7.12502
rthumb 62.4972 -16.2343
lclavicle 5.93869e-015 1.2921e-015
lhumerus 11.6018 -4.2826 69.3449
lradius 119.44
lwrist 60.618
lhand 28.2296 14.7049
lfingers 7.12502
lthumb 52.1085 34.7459
rfemur -98.2824 -19.4502 12.7714
rtibia 138.242
rfoot 60.7431 -2.56285
rtoes 28.4474
lfemur -33.2088 -12.9023 -26.5789
ltibia 59.309
lfoot -19.7048 4.10152
ltoes -17.3697
304
root 0.128249 15.8639 -7.25736 -177.803 -5.63168 -179.387
lowerback 15.5531 -0.767181 -3.95927
upperback -1.73162 -1.67525 1.27517
thorax -10.509 -0.528575 4.04875
lowerneck -21.0025 -0.409 2.00599
upperneck 29.0249 -3.95472 3.64999
head 13.3558 -1.48557 0.280733
rclavicle -9.97029e-016 -1.06847e-015
rhumerus -1.01556 18.5207 -22.7033
rradius 109.743
rwrist -97.8992
rhand 40.9306 -6.41297
rfingers 7.12502
rthumb 63.162 -16.3807
lclavicle -9.97029e-016 -1.06847e-015
lhumerus 17.5372 -4.93976 67.6292
lradius 117.875
lwrist 58.0218
lhand 29.4383 14.4133
lfingers 7.12502
lthumb 53.2012 33.7774
rfemur -99.1861 -17.7201 14.0205
rtibia 134.201
rfoot 54.7522 -6.06358
rtoes 28.1783
lfemur -31.78 -12.6397 -25.0446
ltibia 57.3167
lfoot -18.311 3.19963
ltoes -16.995
305
root 0.124788 16.1154 -7.42275 -177.64 -6.63678 -177.582
lowerback 15.6664 -1.54616 -2.1474
upperback -1.41432 -2.30774 2.24203
thorax -10.1854 -0.931781 4.22162
lowerneck -22.4275 -0.169384 2.50303
upperneck 29.3909 -3.36824 2.47502
head 13.7622 -1.27192 -0.164984
rclavicle 9.6659e-015 9.54166e-015
rhumerus 0.145622 19.5544 -19.3408
rradius 107.867
rwrist -99.6978
rhand 42.6711 -6.64772
rfingers 7.12502
rthumb 64.5689 -14.5263
lclavicle 9.6659e-015 9.54166e-015
lhumerus 23.1164 -4.78193 65.2613
lradius 115.722
lwrist 55.3983
lhand 31.0946 13.6377
lfingers 7.12502
lthumb 54.6883 31.9995
rfemur -99.4714 -15.8447 15.2188
rtibia 129.684
rfoot 49.3436 -15.0514
rtoes 35.7435
lfemur -30.3861 -12.354 -23.0751
ltibia 55.074
lfoot -16.5082 2.54769
ltoes -16.4444
306
root 0.111959 16.3732 -7.58609 -177.342 -7.50476 -175.835
lowerback 16.1415 -2.27869 -0.214716
upperback -1.76029 -2.86147 3.14573
thorax -10.8465 -1.27521 4.29615
lowerneck -22.3726 -1.09645 3.74198
upperneck 29.7742 -2.04244 0.573047
head 13.8427 0.0886732 -0.669022
rclavicle 1.24489e-014 -2.8625e-014
rhumerus 0.80032 21.7731 -16.2721
rradius 105.908
rwrist -99.6914
rhand 44.0132 -6.6724
rfingers 7.12502
rthumb 65.6265 -12.7705
lclavicle 1.24489e-014 -2.8625e-014
lhumerus 26.2447 -4.85975 62.5763
lradius 113.138
lwrist 53.3086
lhand 33.5829 12.6275
lfingers 7.12502
lthumb 56.8961 29.2998
rfemur -99.808 -14.3176 16.0798
rtibia 124.958
rfoot 42.8537 -22.1707
rtoes 39.6353
lfemur -29.0354 -12.1046 -21.1558
ltibia 52.5848
lfoot -14.1314 2.04857
ltoes -14.7667
307
root 0.100473 16.6471 -7.75852 -177.088 -8.38065 -174.588
lowerback 17.0509 -2.95153 1.28643
upperback -2.53544 -3.37772 3.94683
thorax -12.2609 -1.56536 4.58921
lowerneck -21.6961 -0.809634 4.24959
upperneck 30.3579 -1.20128 -0.804565
head 13.942 0.360751 -1.14614
rclavicle 6.95001e-014 1.74931e-014
rhumerus 2.30707 24.6402 -13.6134
rradius 103.612
rwrist -97.9033
rhand 42.7876 -6.60207
rfingers 7.12502
rthumb 64.6617 -14.3322
lclavicle 6.95001e-014 1.74931e-014
lhumerus 28.0079 -5.2814 59.8395
lradius 110.579
lwrist 52.5765
lhand 34.7042 12.7004
lfingers 7.12502
lthumb 57.8792 28.5297
rfemur -99.9567 -13.5251 16.2394
rtibia 120.125
rfoot 36.384 -27.5594
rtoes 42.3114
lfemur -27.4043 -12.048 -19.727
ltibia 49.8241
lfoot -11.4796 1.66897
ltoes -13.5857
308
root 0.0839601 16.9406 -7.92477 -176.677 -8.92544 -173.913
lowerback 17.4817 -3.42008 2.23419
upperback -2.96342 -3.75165 4.67369
thorax -13.0022 -1.78188 5.05247
lowerneck -21.5863 -0.604233 4.38396
upperneck 30.8567 -0.455725 -2.00804
head 14.1482 0.555604 -1.51956
rclavicle 1.52567e-014 -3.33958e-014
rhumerus 2.94309 26.787 -10.9207
rradius 101.038
rwrist -94.9332
rhand 42.0999 -5.9538
rfingers 7.12502
rthumb 64.1114 -14.544
lclavicle 1.52567e-014 -3.33958e-014
lhumerus 30.0161 -5.1991 57.0782
lradius 107.214
lwrist 51.7445
lhand 36.7127 12.4115
lfingers 7.12502
lthumb 59.6189 26.5858
rfemur -100.146 -12.9633 15.5748
rtibia 114.965
rfoot 32.1189 -30.53
rtoes 44.2395
lfemur -25.9076 -11.8196 -18.9124
ltibia 46.8514
lfoot -8.42398 1.67902
ltoes -14.7477
309
root 0.0623622 17.258 -8.08052 -176.033 -9.39495 -173.537
lowerback 17.9072 -3.82303 3.00433
upperback -3.37763 -4.0728 5.39997
thorax -13.7257 -1.96441 5.62636
lowerneck -21.8572 -0.334394 4.30758
upperneck 31.2786 0.455538 -3.27096
head 14.4312 0.771585 -1.86018
rclavicle 5.23301e-014 -2.94201e-014
rhumerus 4.00679 28.5605 -8.04521
rradius 97.7
rwrist -92.1199
rhand 41.1589 -5.44607
rfingers 7.12502
rthumb 63.3487 -15.1529
lclavicle 5.23301e-014 -2.94201e-014
lhumerus 31.8553 -5.00278 54.2608
lradius 103.386
lwrist 50.4494
lhand 38.1563 12.6089
lfingers 7.12502
lthumb 60.85 25.4648
rfemur -100.207 -12.7328 14.4547
rtibia 109.4
rfoot 29.5145 -31.452
rtoes 45.0365
lfemur -24.7487 -11.1876 -18.4028
ltibia 43.813
lfoot -4.31633 1.85702
ltoes -16.1902
